{
	"asset":{
		"generator":"Khronos glTF Blender I/O v4.4.56",
		"version":"2.0"
	},
	"scene":0,
	"scenes":[
		{
			"name":"Scene",
			"nodes":[
				14
			]
		}
	],
	"nodes":[
		{
			"name":"neck bone",
			"scale":[
				0.9999999403953552,
				0.9999999403953552,
				0.9999999403953552
			],
			"translation":[
				0,
				0.7999999523162842,
				0
			]
		},
		{
			"name":"left hand attach point",
			"rotation":[
				0.5,
				0.5,
				0.5,
				0.5
			],
			"scale":[
				0.9999998211860657,
				0.9999998211860657,
				0.9999998211860657
			],
			"translation":[
				-2.607981741675758e-07,
				0.05291283130645752,
				1.1920928955078125e-07
			]
		},
		{
			"children":[
				1
			],
			"name":"left hand effector",
			"rotation":[
				3.388132192913985e-21,
				0,
				0,
				1
			],
			"scale":[
				0.9999999403953552,
				0.9999999403953552,
				0.9999999403953552
			],
			"translation":[
				0,
				0.05000007152557373,
				0
			]
		},
		{
			"children":[
				2
			],
			"name":"left hand bone",
			"rotation":[
				3.388132192913985e-21,
				0,
				0,
				1
			],
			"scale":[
				0.9999999403953552,
				0.9999999403953552,
				0.9999999403953552
			],
			"translation":[
				0,
				0.3999999761581421,
				0
			]
		},
		{
			"children":[
				3
			],
			"name":"left forearm bone",
			"rotation":[
				3.388132192913985e-21,
				-2.9526092411632415e-20,
				0,
				1
			],
			"scale":[
				0.9999999403953552,
				0.9999999403953552,
				0.9999999403953552
			],
			"translation":[
				0,
				0.2999999523162842,
				0
			]
		},
		{
			"children":[
				4
			],
			"name":"left arm bone",
			"rotation":[
				-0.7071067690849304,
				1.3767878215276141e-07,
				1.3767878215276141e-07,
				0.7071067690849304
			],
			"scale":[
				0.9999999403953552,
				0.9999999403953552,
				0.9999999403953552
			],
			"translation":[
				-1.1682430312021097e-07,
				0.5999999046325684,
				-0.29999998211860657
			]
		},
		{
			"name":"right hand attach point",
			"rotation":[
				-0.5,
				-0.5000001192092896,
				0.5,
				0.4999999701976776
			],
			"scale":[
				1.000000238418579,
				0.9999998211860657,
				0.9999998211860657
			],
			"translation":[
				3.544827009704932e-08,
				0.05291283130645752,
				1.1920930376163597e-07
			]
		},
		{
			"children":[
				6
			],
			"name":"right hand effector",
			"rotation":[
				-2.1520127420359146e-27,
				0,
				-1.3419789574524116e-28,
				1
			],
			"scale":[
				0.9999999403953552,
				0.9999999403953552,
				0.9999999403953552
			],
			"translation":[
				8.526512320901434e-15,
				0.05000007152557373,
				0
			]
		},
		{
			"children":[
				7
			],
			"name":"right hand bone",
			"rotation":[
				-2.1520127420359146e-27,
				-6.12479532787091e-41,
				-5.3809461903308844e-28,
				1
			],
			"scale":[
				0.9999999403953552,
				0.9999999403953552,
				0.9999999403953552
			],
			"translation":[
				8.526512320901434e-15,
				0.3999999165534973,
				0
			]
		},
		{
			"children":[
				8
			],
			"name":"right forearm bone",
			"rotation":[
				-2.0194839173657902e-27,
				7.105428204633949e-15,
				1.4210854715202004e-14,
				1
			],
			"scale":[
				0.9999999403953552,
				0.9999999403953552,
				0.9999999403953552
			],
			"translation":[
				-8.526512320901434e-15,
				0.2999999523162842,
				0
			]
		},
		{
			"children":[
				9
			],
			"name":"right arm bone",
			"rotation":[
				0.7071067690849304,
				2.2197248483735166e-07,
				-5.3385093679025886e-08,
				0.7071067690849304
			],
			"scale":[
				0.9999999403953552,
				0.9999999403953552,
				0.9999999403953552
			],
			"translation":[
				1.1682430312021097e-07,
				0.5999999046325684,
				0.29999998211860657
			]
		},
		{
			"children":[
				0,
				5,
				10
			],
			"name":"body bone",
			"rotation":[
				0.7071067690849304,
				-1.3767878215276141e-07,
				-1.3767878215276141e-07,
				0.7071067690849304
			],
			"scale":[
				0.9999999403953552,
				0.9999999403953552,
				0.9999999403953552
			],
			"translation":[
				0,
				0,
				0.9999999403953552
			]
		},
		{
			"name":"neutral_bone",
			"rotation":[
				-0.7071067690849304,
				0,
				0,
				0.7071067690849304
			]
		},
		{
			"mesh":0,
			"name":"character",
			"skin":0
		},
		{
			"children":[
				13,
				11,
				12
			],
			"name":"Armature",
			"scale":[
				0.7356356978416443,
				0.7356356978416443,
				0.7356356978416443
			]
		}
	],
	"materials":[
		{
			"doubleSided":true,
			"name":"character material",
			"pbrMetallicRoughness":{
				"baseColorFactor":[
					0.800000011920929,
					0.800000011920929,
					0.800000011920929,
					1
				],
				"metallicFactor":0,
				"roughnessFactor":0.5
			}
		}
	],
	"meshes":[
		{
			"name":"character mesh",
			"primitives":[
				{
					"attributes":{
						"POSITION":0,
						"NORMAL":1,
						"TEXCOORD_0":2,
						"COLOR_0":3,
						"COLOR_1":4,
						"JOINTS_0":5,
						"WEIGHTS_0":6
					},
					"indices":7,
					"material":0
				}
			]
		}
	],
	"skins":[
		{
			"inverseBindMatrices":8,
			"joints":[
				11,
				0,
				5,
				4,
				3,
				2,
				10,
				9,
				8,
				7,
				12
			],
			"name":"Armature"
		}
	],
	"accessors":[
		{
			"bufferView":0,
			"componentType":5126,
			"count":1026,
			"max":[
				0.1471271514892578,
				0.8113420605659485,
				1.7655255794525146
			],
			"min":[
				-0.1471271961927414,
				-0.8113421201705933,
				-6.315493550346218e-08
			],
			"type":"VEC3"
		},
		{
			"bufferView":1,
			"componentType":5126,
			"count":1026,
			"type":"VEC3"
		},
		{
			"bufferView":2,
			"componentType":5126,
			"count":1026,
			"type":"VEC2"
		},
		{
			"bufferView":3,
			"componentType":5121,
			"count":1026,
			"normalized":true,
			"type":"VEC4"
		},
		{
			"bufferView":4,
			"componentType":5123,
			"count":1026,
			"normalized":true,
			"type":"VEC4"
		},
		{
			"bufferView":5,
			"componentType":5121,
			"count":1026,
			"type":"VEC4"
		},
		{
			"bufferView":6,
			"componentType":5126,
			"count":1026,
			"type":"VEC4"
		},
		{
			"bufferView":7,
			"componentType":5123,
			"count":3336,
			"type":"SCALAR"
		},
		{
			"bufferView":8,
			"componentType":5126,
			"count":11,
			"type":"MAT4"
		}
	],
	"bufferViews":[
		{
			"buffer":0,
			"byteLength":12312,
			"byteOffset":0,
			"target":34962
		},
		{
			"buffer":0,
			"byteLength":12312,
			"byteOffset":12312,
			"target":34962
		},
		{
			"buffer":0,
			"byteLength":8208,
			"byteOffset":24624,
			"target":34962
		},
		{
			"buffer":0,
			"byteLength":4104,
			"byteOffset":32832,
			"target":34962
		},
		{
			"buffer":0,
			"byteLength":8208,
			"byteOffset":36936,
			"target":34962
		},
		{
			"buffer":0,
			"byteLength":4104,
			"byteOffset":45144,
			"target":34962
		},
		{
			"buffer":0,
			"byteLength":16416,
			"byteOffset":49248,
			"target":34962
		},
		{
			"buffer":0,
			"byteLength":6672,
			"byteOffset":65664,
			"target":34963
		},
		{
			"buffer":0,
			"byteLength":704,
			"byteOffset":72336
		}
	],
	"buffers":[
		{
			"byteLength":73040,
			"uri":"character.bin"
		}
	]
}
