{
	"asset":{
		"generator":"Khronos glTF Blender I/O v4.3.47",
		"version":"2.0"
	},
	"scene":0,
	"scenes":[
		{
			"name":"Scene",
			"nodes":[
				12
			]
		}
	],
	"nodes":[
		{
			"name":"neck bone",
			"translation":[
				0,
				0.7999999523162842,
				0
			]
		},
		{
			"name":"left hand effector",
			"translation":[
				0,
				0.05000007152557373,
				0
			]
		},
		{
			"children":[
				1
			],
			"name":"left hand bone",
			"translation":[
				0,
				0.40000003576278687,
				0
			]
		},
		{
			"children":[
				2
			],
			"name":"left forearm bone",
			"rotation":[
				0,
				-2.952608918045815e-20,
				0,
				1
			],
			"translation":[
				0,
				0.2999999523162842,
				0
			]
		},
		{
			"children":[
				3
			],
			"name":"left arm bone",
			"rotation":[
				-0.7071067690849304,
				1.376787679419067e-07,
				1.376787679419067e-07,
				0.7071067690849304
			],
			"translation":[
				-1.1682431733106569e-07,
				0.6000000238418579,
				-0.30000001192092896
			]
		},
		{
			"name":"right hand effector",
			"rotation":[
				-2.1520125494429202e-27,
				0,
				-1.341978355599304e-28,
				1
			],
			"translation":[
				8.526513167934381e-15,
				0.05000007152557373,
				0
			]
		},
		{
			"children":[
				5
			],
			"name":"right hand bone",
			"rotation":[
				-2.1520125494429202e-27,
				-6.12479532787091e-41,
				-5.380945227365912e-28,
				1
			],
			"translation":[
				8.526513167934381e-15,
				0.3999999761581421,
				0
			]
		},
		{
			"children":[
				6
			],
			"name":"right forearm bone",
			"rotation":[
				-3.388133808501119e-21,
				1.4210854715202004e-14,
				1.4210854715202004e-14,
				1
			],
			"translation":[
				-8.526513167934381e-15,
				0.30000001192092896,
				0
			]
		},
		{
			"children":[
				7
			],
			"name":"right arm bone",
			"rotation":[
				0.7071067690849304,
				2.2197245641564223e-07,
				-5.3385093679025886e-08,
				0.7071067690849304
			],
			"translation":[
				1.1682431733106569e-07,
				0.6000000238418579,
				0.30000001192092896
			]
		},
		{
			"children":[
				0,
				4,
				8
			],
			"name":"body bone",
			"rotation":[
				0.7071067690849304,
				-1.376787679419067e-07,
				-1.376787679419067e-07,
				0.7071067690849304
			],
			"translation":[
				0,
				0,
				1
			]
		},
		{
			"name":"neutral_bone",
			"rotation":[
				-0.7071067690849304,
				0,
				0,
				0.7071067690849304
			]
		},
		{
			"mesh":0,
			"name":"character",
			"skin":0
		},
		{
			"children":[
				11,
				9,
				10
			],
			"name":"Armature"
		}
	],
	"materials":[
		{
			"name":"character material",
			"pbrMetallicRoughness":{
				"baseColorTexture":{
					"index":0
				},
				"metallicFactor":0.20000000298023224,
				"roughnessFactor":0.5
			}
		}
	],
	"meshes":[
		{
			"name":"character mesh",
			"primitives":[
				{
					"attributes":{
						"POSITION":0,
						"NORMAL":1,
						"TEXCOORD_0":2,
						"COLOR_0":3,
						"COLOR_1":4,
						"JOINTS_0":5,
						"WEIGHTS_0":6
					},
					"indices":7,
					"material":0
				}
			]
		}
	],
	"textures":[
		{
			"sampler":0,
			"source":0
		}
	],
	"images":[
		{
			"mimeType":"image/png",
			"name":"Image_0",
			"uri":"Image_0.png"
		}
	],
	"skins":[
		{
			"inverseBindMatrices":8,
			"joints":[
				9,
				0,
				4,
				3,
				2,
				1,
				8,
				7,
				6,
				5,
				10
			],
			"name":"Armature"
		}
	],
	"accessors":[
		{
			"bufferView":0,
			"componentType":5126,
			"count":1002,
			"max":[
				0.20000000298023224,
				1.1029129028320312,
				2.3999998569488525
			],
			"min":[
				-0.2000000774860382,
				-1.1029130220413208,
				-9.382763010989947e-08
			],
			"type":"VEC3"
		},
		{
			"bufferView":1,
			"componentType":5126,
			"count":1002,
			"type":"VEC3"
		},
		{
			"bufferView":2,
			"componentType":5126,
			"count":1002,
			"type":"VEC2"
		},
		{
			"bufferView":3,
			"componentType":5121,
			"count":1002,
			"normalized":true,
			"type":"VEC4"
		},
		{
			"bufferView":4,
			"componentType":5123,
			"count":1002,
			"normalized":true,
			"type":"VEC4"
		},
		{
			"bufferView":5,
			"componentType":5121,
			"count":1002,
			"type":"VEC4"
		},
		{
			"bufferView":6,
			"componentType":5126,
			"count":1002,
			"type":"VEC4"
		},
		{
			"bufferView":7,
			"componentType":5123,
			"count":3336,
			"type":"SCALAR"
		},
		{
			"bufferView":8,
			"componentType":5126,
			"count":11,
			"type":"MAT4"
		}
	],
	"bufferViews":[
		{
			"buffer":0,
			"byteLength":12024,
			"byteOffset":0,
			"target":34962
		},
		{
			"buffer":0,
			"byteLength":12024,
			"byteOffset":12024,
			"target":34962
		},
		{
			"buffer":0,
			"byteLength":8016,
			"byteOffset":24048,
			"target":34962
		},
		{
			"buffer":0,
			"byteLength":4008,
			"byteOffset":32064,
			"target":34962
		},
		{
			"buffer":0,
			"byteLength":8016,
			"byteOffset":36072,
			"target":34962
		},
		{
			"buffer":0,
			"byteLength":4008,
			"byteOffset":44088,
			"target":34962
		},
		{
			"buffer":0,
			"byteLength":16032,
			"byteOffset":48096,
			"target":34962
		},
		{
			"buffer":0,
			"byteLength":6672,
			"byteOffset":64128,
			"target":34963
		},
		{
			"buffer":0,
			"byteLength":704,
			"byteOffset":70800
		}
	],
	"samplers":[
		{
			"magFilter":9729,
			"minFilter":9987
		}
	],
	"buffers":[
		{
			"byteLength":71504,
			"uri":"character.bin"
		}
	]
}
