{
	"asset":{
		"generator":"Khronos glTF Blender I/O v4.3.47",
		"version":"2.0"
	},
	"scene":0,
	"scenes":[
		{
			"name":"Scene",
			"nodes":[
				10
			]
		}
	],
	"nodes":[
		{
			"mesh":0,
			"name":"right front foot",
			"rotation":[
				1.46461701433509e-07,
				-1.4646175827692787e-07,
				-0.7071065902709961,
				0.7071069478988647
			],
			"scale":[
				1.0000001192092896,
				1,
				1
			],
			"translation":[
				7.450580596923828e-09,
				0.019999980926513672,
				-1.8667649010254382e-15
			]
		},
		{
			"children":[
				0
			],
			"name":"foot",
			"translation":[
				0,
				0.03999999165534973,
				0
			]
		},
		{
			"mesh":1,
			"name":"right front foreleg",
			"rotation":[
				1.464616872226543e-07,
				-1.4646174406607315e-07,
				-0.7071065902709961,
				0.7071069478988647
			],
			"scale":[
				1.0000001192092896,
				1,
				1
			],
			"translation":[
				7.450580596923828e-09,
				0.019999995827674866,
				-5.660541615515671e-15
			]
		},
		{
			"children":[
				1,
				2
			],
			"name":"foreleg",
			"translation":[
				0,
				0.040000006556510925,
				0
			]
		},
		{
			"mesh":2,
			"name":"right front leg",
			"rotation":[
				1.4646167301179958e-07,
				-1.4646171564436372e-07,
				-0.7071065902709961,
				0.7071069478988647
			],
			"scale":[
				1.0000001192092896,
				1,
				1
			],
			"translation":[
				7.450580596923828e-09,
				0.02000001072883606,
				-2.0232131569327284e-15
			]
		},
		{
			"children":[
				3,
				4
			],
			"name":"leg",
			"rotation":[
				1.4189485852966754e-07,
				1.4189485852966754e-07,
				-0.7071067690849304,
				0.7071067690849304
			],
			"translation":[
				0.09999999403953552,
				0.20999997854232788,
				0
			]
		},
		{
			"mesh":3,
			"name":"left eye",
			"rotation":[
				-0.4999999701976776,
				-0.5,
				0.5,
				0.5000000596046448
			],
			"translation":[
				-0.04999999701976776,
				-0.11999998986721039,
				-0.04500000551342964
			]
		},
		{
			"mesh":4,
			"name":"right eye",
			"rotation":[
				-0.4999999701976776,
				-0.5,
				0.5,
				0.5000000596046448
			],
			"translation":[
				0.04999999701976776,
				-0.11999998986721039,
				-0.04500000551342964
			]
		},
		{
			"children":[
				6,
				7
			],
			"mesh":5,
			"name":"body",
			"rotation":[
				1,
				0,
				0,
				7.549790126404332e-08
			],
			"translation":[
				0,
				0.13999998569488525,
				0
			]
		},
		{
			"children":[
				5,
				8
			],
			"name":"body",
			"translation":[
				0,
				0.6600000262260437,
				0
			]
		},
		{
			"children":[
				9
			],
			"name":"Armature",
			"translation":[
				0,
				-0.800000011920929,
				0
			]
		}
	],
	"materials":[
		{
			"doubleSided":true,
			"name":"frog body",
			"pbrMetallicRoughness":{
				"baseColorFactor":[
					0.01282502245157957,
					0.8010555505752563,
					0.01084926351904869,
					1
				],
				"metallicFactor":0,
				"roughnessFactor":0.5
			}
		},
		{
			"doubleSided":true,
			"name":"frog eye",
			"pbrMetallicRoughness":{
				"baseColorFactor":[
					0.8000785112380981,
					0.01644919440150261,
					0.03018285520374775,
					1
				],
				"metallicFactor":0,
				"roughnessFactor":0.5
			}
		}
	],
	"meshes":[
		{
			"name":"Cube.015",
			"primitives":[
				{
					"attributes":{
						"POSITION":0,
						"NORMAL":1,
						"TEXCOORD_0":2
					},
					"indices":3,
					"material":0
				}
			]
		},
		{
			"name":"Cube.014",
			"primitives":[
				{
					"attributes":{
						"POSITION":4,
						"NORMAL":5,
						"TEXCOORD_0":6
					},
					"indices":3,
					"material":0
				}
			]
		},
		{
			"name":"Cube.012",
			"primitives":[
				{
					"attributes":{
						"POSITION":7,
						"NORMAL":8,
						"TEXCOORD_0":9
					},
					"indices":3,
					"material":0
				}
			]
		},
		{
			"name":"Cube.024",
			"primitives":[
				{
					"attributes":{
						"POSITION":10,
						"NORMAL":11,
						"TEXCOORD_0":12
					},
					"indices":3,
					"material":1
				}
			]
		},
		{
			"name":"Cube.027",
			"primitives":[
				{
					"attributes":{
						"POSITION":13,
						"NORMAL":14,
						"TEXCOORD_0":15
					},
					"indices":3,
					"material":1
				}
			]
		},
		{
			"name":"body mesh",
			"primitives":[
				{
					"attributes":{
						"POSITION":16,
						"NORMAL":17,
						"TEXCOORD_0":18
					},
					"indices":3,
					"material":0
				}
			]
		}
	],
	"skins":[
		{
			"inverseBindMatrices":19,
			"joints":[
				9,
				5,
				3,
				1
			],
			"name":"Armature"
		}
	],
	"accessors":[
		{
			"bufferView":0,
			"componentType":5126,
			"count":24,
			"max":[
				0.020000005140900612,
				0.010000000707805157,
				0.009999999776482582
			],
			"min":[
				5.587935447692871e-09,
				-0.010000001639127731,
				-0.009999999776482582
			],
			"type":"VEC3"
		},
		{
			"bufferView":1,
			"componentType":5126,
			"count":24,
			"type":"VEC3"
		},
		{
			"bufferView":2,
			"componentType":5126,
			"count":24,
			"type":"VEC2"
		},
		{
			"bufferView":3,
			"componentType":5123,
			"count":36,
			"type":"SCALAR"
		},
		{
			"bufferView":4,
			"componentType":5126,
			"count":24,
			"max":[
				0.020000005140900612,
				0.01000000350177288,
				0.009999999776482582
			],
			"min":[
				-0.020000005140900612,
				-0.010000001639127731,
				-0.009999999776482582
			],
			"type":"VEC3"
		},
		{
			"bufferView":5,
			"componentType":5126,
			"count":24,
			"type":"VEC3"
		},
		{
			"bufferView":6,
			"componentType":5126,
			"count":24,
			"type":"VEC2"
		},
		{
			"bufferView":7,
			"componentType":5126,
			"count":24,
			"max":[
				0.020000005140900612,
				0.02000000700354576,
				0.019999999552965164
			],
			"min":[
				-0.020000005140900612,
				-0.019999999552965164,
				-0.019999999552965164
			],
			"type":"VEC3"
		},
		{
			"bufferView":8,
			"componentType":5126,
			"count":24,
			"type":"VEC3"
		},
		{
			"bufferView":9,
			"componentType":5126,
			"count":24,
			"type":"VEC2"
		},
		{
			"bufferView":10,
			"componentType":5126,
			"count":24,
			"max":[
				0.009999997913837433,
				0.005000000819563866,
				0.009999999776482582
			],
			"min":[
				-0.009999998845160007,
				-0.004999997094273567,
				-0.010000000707805157
			],
			"type":"VEC3"
		},
		{
			"bufferView":11,
			"componentType":5126,
			"count":24,
			"type":"VEC3"
		},
		{
			"bufferView":12,
			"componentType":5126,
			"count":24,
			"type":"VEC2"
		},
		{
			"bufferView":13,
			"componentType":5126,
			"count":24,
			"max":[
				0.009999997913837433,
				0.005000000819563866,
				0.009999999776482582
			],
			"min":[
				-0.009999998845160007,
				-0.004999997094273567,
				-0.010000000707805157
			],
			"type":"VEC3"
		},
		{
			"bufferView":14,
			"componentType":5126,
			"count":24,
			"type":"VEC3"
		},
		{
			"bufferView":15,
			"componentType":5126,
			"count":24,
			"type":"VEC2"
		},
		{
			"bufferView":16,
			"componentType":5126,
			"count":24,
			"max":[
				0.09999999403953552,
				0.14000000059604645,
				0.040000010281801224
			],
			"min":[
				-0.09999999403953552,
				-0.14000000059604645,
				-0.040000010281801224
			],
			"type":"VEC3"
		},
		{
			"bufferView":17,
			"componentType":5126,
			"count":24,
			"type":"VEC3"
		},
		{
			"bufferView":18,
			"componentType":5126,
			"count":24,
			"type":"VEC2"
		},
		{
			"bufferView":19,
			"componentType":5126,
			"count":4,
			"type":"MAT4"
		}
	],
	"bufferViews":[
		{
			"buffer":0,
			"byteLength":288,
			"byteOffset":0,
			"target":34962
		},
		{
			"buffer":0,
			"byteLength":288,
			"byteOffset":288,
			"target":34962
		},
		{
			"buffer":0,
			"byteLength":192,
			"byteOffset":576,
			"target":34962
		},
		{
			"buffer":0,
			"byteLength":72,
			"byteOffset":768,
			"target":34963
		},
		{
			"buffer":0,
			"byteLength":288,
			"byteOffset":840,
			"target":34962
		},
		{
			"buffer":0,
			"byteLength":288,
			"byteOffset":1128,
			"target":34962
		},
		{
			"buffer":0,
			"byteLength":192,
			"byteOffset":1416,
			"target":34962
		},
		{
			"buffer":0,
			"byteLength":288,
			"byteOffset":1608,
			"target":34962
		},
		{
			"buffer":0,
			"byteLength":288,
			"byteOffset":1896,
			"target":34962
		},
		{
			"buffer":0,
			"byteLength":192,
			"byteOffset":2184,
			"target":34962
		},
		{
			"buffer":0,
			"byteLength":288,
			"byteOffset":2376,
			"target":34962
		},
		{
			"buffer":0,
			"byteLength":288,
			"byteOffset":2664,
			"target":34962
		},
		{
			"buffer":0,
			"byteLength":192,
			"byteOffset":2952,
			"target":34962
		},
		{
			"buffer":0,
			"byteLength":288,
			"byteOffset":3144,
			"target":34962
		},
		{
			"buffer":0,
			"byteLength":288,
			"byteOffset":3432,
			"target":34962
		},
		{
			"buffer":0,
			"byteLength":192,
			"byteOffset":3720,
			"target":34962
		},
		{
			"buffer":0,
			"byteLength":288,
			"byteOffset":3912,
			"target":34962
		},
		{
			"buffer":0,
			"byteLength":288,
			"byteOffset":4200,
			"target":34962
		},
		{
			"buffer":0,
			"byteLength":192,
			"byteOffset":4488,
			"target":34962
		},
		{
			"buffer":0,
			"byteLength":256,
			"byteOffset":4680
		}
	],
	"buffers":[
		{
			"byteLength":4936,
			"uri":"frog.bin"
		}
	]
}
