{
	"asset":{
		"generator":"Khronos glTF Blender I/O v4.3.47",
		"version":"2.0"
	},
	"scene":0,
	"scenes":[
		{
			"name":"Scene",
			"nodes":[
				54
			]
		}
	],
	"nodes":[
		{
			"name":"head",
			"rotation":[
				-0.03185064718127251,
				1.2932666049181307e-10,
				7.190251061217623e-09,
				0.9994926452636719
			],
			"scale":[
				1,
				0.9999999403953552,
				0.9999999403953552
			],
			"translation":[
				-2.89507084971774e-10,
				0.245266854763031,
				8.747695900979124e-09
			]
		},
		{
			"children":[
				0
			],
			"name":"neck",
			"rotation":[
				0.23579344153404236,
				0.00014984564040787518,
				-0.005620680283755064,
				0.9717869758605957
			],
			"scale":[
				0.9999999403953552,
				1,
				0.9999999403953552
			],
			"translation":[
				0.0023722038604319096,
				0.8775951862335205,
				0.03904043883085251
			]
		},
		{
			"name":"lowerfinger.L",
			"rotation":[
				0.07802658528089523,
				-0.010184085927903652,
				-0.040764980018138885,
				0.9960654377937317
			],
			"scale":[
				0.9999999403953552,
				0.9999998211860657,
				0.9999999403953552
			],
			"translation":[
				-1.4598481357097626e-07,
				0.04208175092935562,
				-1.1920928955078125e-07
			]
		},
		{
			"children":[
				2
			],
			"name":"midfinger.L",
			"rotation":[
				0.003058977657929063,
				0.024703795090317726,
				-0.10774892568588257,
				0.9938664436340332
			],
			"scale":[
				1.0000001192092896,
				1,
				1
			],
			"translation":[
				1.0128132998943329e-07,
				0.08919480443000793,
				1.4901161193847656e-08
			]
		},
		{
			"children":[
				3
			],
			"name":"upfinger.L",
			"rotation":[
				-0.13251233100891113,
				0.0037868255749344826,
				-0.1121530681848526,
				0.9848085641860962
			],
			"scale":[
				1,
				1,
				0.9999998807907104
			],
			"translation":[
				-0.011983866803348064,
				0.2086523026227951,
				-0.07740450650453568
			]
		},
		{
			"name":"lowerfinger2.L",
			"rotation":[
				0.020496316254138947,
				-0.07888596504926682,
				-0.03073185868561268,
				0.9961990118026733
			],
			"scale":[
				0.9999999403953552,
				0.9999998807907104,
				1
			],
			"translation":[
				-2.7636997401714325e-07,
				0.05752016603946686,
				0
			]
		},
		{
			"children":[
				5
			],
			"name":"midfinger2.L",
			"rotation":[
				-0.012899362482130527,
				0.005790660623461008,
				-0.006611208897083998,
				0.9998781681060791
			],
			"scale":[
				1,
				0.9999999403953552,
				0.9999999403953552
			],
			"translation":[
				-3.501772880554199e-07,
				0.08088266849517822,
				1.3969838619232178e-08
			]
		},
		{
			"children":[
				6
			],
			"name":"upfinger2.L",
			"rotation":[
				-0.004780090879648924,
				-0.01736089587211609,
				-0.15135829150676727,
				0.9883149862289429
			],
			"scale":[
				1,
				1,
				0.9999999403953552
			],
			"translation":[
				-0.016470806673169136,
				0.19975826144218445,
				-0.04867034777998924
			]
		},
		{
			"name":"lowerfinger3.L",
			"rotation":[
				0.027595054358243942,
				-0.07900819927453995,
				-0.0777120292186737,
				0.9934571385383606
			],
			"scale":[
				1,
				1.0000001192092896,
				1
			],
			"translation":[
				-2.66125425696373e-07,
				0.057268016040325165,
				-1.862645149230957e-09
			]
		},
		{
			"children":[
				8
			],
			"name":"midfinger3.L",
			"rotation":[
				-0.021968845278024673,
				0.005379269365221262,
				-0.005221853964030743,
				0.9997305274009705
			],
			"scale":[
				1,
				1,
				1.0000001192092896
			],
			"translation":[
				-3.527384251356125e-08,
				0.08110138028860092,
				-1.862645149230957e-08
			]
		},
		{
			"children":[
				9
			],
			"name":"upfinger3.L",
			"rotation":[
				0.0233536995947361,
				-0.021670648828148842,
				-0.15478534996509552,
				0.9874342679977417
			],
			"scale":[
				0.9999999403953552,
				1,
				0.9999998807907104
			],
			"translation":[
				-0.01549981627613306,
				0.20161031186580658,
				0.003955807536840439
			]
		},
		{
			"name":"lowerfinger4.L",
			"rotation":[
				-0.000409676373237744,
				-0.0888698548078537,
				-0.07190337777137756,
				0.9934445023536682
			],
			"scale":[
				1,
				0.9999997615814209,
				0.9999998211860657
			],
			"translation":[
				-2.0291918190196157e-07,
				0.054999060928821564,
				3.073364496231079e-08
			]
		},
		{
			"children":[
				11
			],
			"name":"midfinger4.L",
			"rotation":[
				-0.006421659141778946,
				0.0041017914190888405,
				-0.006707087624818087,
				0.9999485015869141
			],
			"scale":[
				0.9999998211860657,
				0.9999999403953552,
				0.9999999403953552
			],
			"translation":[
				-1.5714613255113363e-07,
				0.07986251264810562,
				1.0244548320770264e-08
			]
		},
		{
			"children":[
				12
			],
			"name":"upfinger4.L",
			"rotation":[
				0.0912860855460167,
				-0.03212898597121239,
				-0.16123932600021362,
				0.9821590781211853
			],
			"scale":[
				0.9999999403953552,
				0.9999999403953552,
				0.9999998807907104
			],
			"translation":[
				-0.012140178121626377,
				0.19467036426067352,
				0.05887221172451973
			]
		},
		{
			"name":"lowertoose.L",
			"rotation":[
				-0.2207394391298294,
				0.05650835856795311,
				-0.0759233683347702,
				0.9707299470901489
			],
			"scale":[
				1,
				1,
				0.9999998807907104
			],
			"translation":[
				-7.916241884231567e-08,
				0.09655032306909561,
				1.4901161193847656e-08
			]
		},
		{
			"children":[
				14
			],
			"name":"toosemid.L",
			"rotation":[
				-0.10917928814888,
				0.11305905878543854,
				0.2043677121400833,
				0.9661942720413208
			],
			"scale":[
				0.9999998807907104,
				1,
				0.9999999403953552
			],
			"translation":[
				-1.5320256352424622e-07,
				0.10475613921880722,
				-1.1175870895385742e-08
			]
		},
		{
			"children":[
				15
			],
			"name":"tooseup.L",
			"rotation":[
				0.2623865604400635,
				-0.2040182650089264,
				-0.3476931154727936,
				0.8767207860946655
			],
			"scale":[
				0.9999999403953552,
				0.9999998211860657,
				0.9999999403953552
			],
			"translation":[
				0.01618349365890026,
				0.09848413616418839,
				0.0634239912033081
			]
		},
		{
			"children":[
				4,
				7,
				10,
				13,
				16
			],
			"name":"hand.L",
			"rotation":[
				0.010900702327489853,
				0.002798366593196988,
				0.18405717611312866,
				0.9828511476516724
			],
			"scale":[
				1,
				0.9999998807907104,
				0.9999999403953552
			],
			"translation":[
				-8.719432287307427e-09,
				0.47986963391304016,
				1.225203050125856e-09
			]
		},
		{
			"children":[
				17
			],
			"name":"lowerarm.L",
			"rotation":[
				3.0899794722927254e-08,
				1.293635136789817e-07,
				0.05775584653019905,
				0.9983307719230652
			],
			"translation":[
				2.633977302934909e-08,
				0.9386532306671143,
				-2.5266331249440555e-09
			]
		},
		{
			"children":[
				18
			],
			"name":"upperarm.L",
			"rotation":[
				-1.4177652474245406e-07,
				1.7979890287733724e-07,
				-0.5168158411979675,
				0.856096625328064
			],
			"scale":[
				1,
				0.9999999403953552,
				1
			],
			"translation":[
				2.785803587812552e-07,
				0.2603524625301361,
				-4.478309278965753e-09
			]
		},
		{
			"children":[
				19
			],
			"name":"KTF.L",
			"rotation":[
				0.07117002457380295,
				0.059325240552425385,
				-0.6338435411453247,
				0.7678917646408081
			],
			"scale":[
				0.9999999403953552,
				1,
				0.9999998807907104
			],
			"translation":[
				0.2734225392341614,
				0.721357524394989,
				0.0513678714632988
			]
		},
		{
			"name":"lowerfinger.R",
			"rotation":[
				0.07802655547857285,
				0.010184076614677906,
				0.040765002369880676,
				0.9960654377937317
			],
			"scale":[
				0.9999999403953552,
				1.0000001192092896,
				1
			],
			"translation":[
				-9.010545909404755e-08,
				0.04208127036690712,
				-1.4901161193847656e-07
			]
		},
		{
			"children":[
				21
			],
			"name":"midfinger.R",
			"rotation":[
				0.0030589643865823746,
				-0.024703776463866234,
				0.10774886608123779,
				0.9938664436340332
			],
			"scale":[
				1,
				1.0000001192092896,
				1
			],
			"translation":[
				-3.3760443329811096e-07,
				0.08919449150562286,
				-2.9802322387695312e-08
			]
		},
		{
			"children":[
				22
			],
			"name":"upfinger.R",
			"rotation":[
				-0.13251233100891113,
				-0.003786819986999035,
				0.11215309798717499,
				0.9848085641860962
			],
			"scale":[
				0.9999999403953552,
				1,
				0.9999998807907104
			],
			"translation":[
				0.011983866803348064,
				0.20865215361118317,
				-0.07740449160337448
			]
		},
		{
			"name":"lowerfinger2.R",
			"rotation":[
				0.020496323704719543,
				0.07888595014810562,
				0.03073178417980671,
				0.9961990118026733
			],
			"scale":[
				0.9999999403953552,
				0.9999998807907104,
				1.0000001192092896
			],
			"translation":[
				-8.079223334789276e-08,
				0.05752016603946686,
				-1.1175870895385742e-08
			]
		},
		{
			"children":[
				24
			],
			"name":"midfinger2.R",
			"rotation":[
				-0.012899383902549744,
				-0.005790663883090019,
				0.006611186545342207,
				0.9998782277107239
			],
			"scale":[
				0.9999999403953552,
				1,
				1
			],
			"translation":[
				1.1222437024116516e-07,
				0.08088236302137375,
				4.6566128730773926e-09
			]
		},
		{
			"children":[
				25
			],
			"name":"upfinger2.R",
			"rotation":[
				-0.00478006899356842,
				0.017360903322696686,
				0.15135832130908966,
				0.9883149266242981
			],
			"scale":[
				1,
				1.0000001192092896,
				0.9999999403953552
			],
			"translation":[
				0.01647062785923481,
				0.19975823163986206,
				-0.04867033660411835
			]
		},
		{
			"name":"lowerfinger3.R",
			"rotation":[
				0.027595046907663345,
				0.07900819927453995,
				0.07771207392215729,
				0.9934571385383606
			],
			"translation":[
				2.7939677238464355e-08,
				0.05726807564496994,
				-1.6763806343078613e-08
			]
		},
		{
			"children":[
				27
			],
			"name":"midfinger3.R",
			"rotation":[
				-0.021968845278024673,
				-0.005379274487495422,
				0.005221831612288952,
				0.9997305274009705
			],
			"scale":[
				1,
				0.9999999403953552,
				1
			],
			"translation":[
				3.597233444452286e-08,
				0.0811014398932457,
				7.450580596923828e-09
			]
		},
		{
			"children":[
				28
			],
			"name":"upfinger3.R",
			"rotation":[
				0.0233536995947361,
				0.02167065627872944,
				0.15478533506393433,
				0.9874342679977417
			],
			"scale":[
				1,
				1,
				0.9999998807907104
			],
			"translation":[
				0.015499875880777836,
				0.20161016285419464,
				0.003955800086259842
			]
		},
		{
			"name":"lowerfinger4.R",
			"rotation":[
				-0.0004096681659575552,
				0.08886982500553131,
				0.07190340012311935,
				0.9934445023536682
			],
			"scale":[
				1,
				0.9999998807907104,
				0.9999999403953552
			],
			"translation":[
				3.2228854252025485e-07,
				0.054998937994241714,
				3.864988684654236e-08
			]
		},
		{
			"children":[
				30
			],
			"name":"midfinger4.R",
			"rotation":[
				-0.006421645637601614,
				-0.004101794213056564,
				0.0067070964723825455,
				0.9999485015869141
			],
			"scale":[
				0.9999997615814209,
				1,
				0.9999999403953552
			],
			"translation":[
				3.812601789832115e-08,
				0.07986239343881607,
				3.306195139884949e-08
			]
		},
		{
			"children":[
				31
			],
			"name":"upfinger4.R",
			"rotation":[
				0.0912860631942749,
				0.03212898224592209,
				0.16123934090137482,
				0.9821590781211853
			],
			"scale":[
				0.9999998807907104,
				0.9999998807907104,
				0.9999999403953552
			],
			"translation":[
				0.012139999307692051,
				0.19467033445835114,
				0.05887220799922943
			]
		},
		{
			"name":"lowertoose.R",
			"rotation":[
				-0.220739483833313,
				-0.05650836601853371,
				0.07592345774173737,
				0.9707298874855042
			],
			"scale":[
				0.9999998807907104,
				0.9999998807907104,
				0.9999998211860657
			],
			"translation":[
				8.288770914077759e-08,
				0.09655050933361053,
				0
			]
		},
		{
			"children":[
				33
			],
			"name":"toosemid.R",
			"rotation":[
				-0.10917928069829941,
				-0.11305905878543854,
				-0.2043677568435669,
				0.9661942720413208
			],
			"scale":[
				0.9999999403953552,
				1.0000001192092896,
				1
			],
			"translation":[
				-2.3283064365386963e-08,
				0.10475636273622513,
				-6.332993507385254e-08
			]
		},
		{
			"children":[
				34
			],
			"name":"tooseup.R",
			"rotation":[
				0.2623864710330963,
				0.204018235206604,
				0.3476930856704712,
				0.8767208456993103
			],
			"scale":[
				0.9999999403953552,
				1,
				0.9999999403953552
			],
			"translation":[
				-0.01618325524032116,
				0.098484106361866,
				0.0634239912033081
			]
		},
		{
			"children":[
				23,
				26,
				29,
				32,
				35
			],
			"name":"hand.R",
			"rotation":[
				0.010900701396167278,
				-0.0027983675245195627,
				-0.18405714631080627,
				0.9828511476516724
			],
			"scale":[
				1,
				0.9999999403953552,
				1.0000001192092896
			],
			"translation":[
				-2.2969913970882772e-07,
				0.47986963391304016,
				-1.0455238452777849e-08
			]
		},
		{
			"children":[
				36
			],
			"name":"lowerarm.R",
			"rotation":[
				3.056932840195259e-08,
				-1.3004044774334034e-07,
				-0.057755887508392334,
				0.9983307719230652
			],
			"scale":[
				1,
				0.9999999403953552,
				1
			],
			"translation":[
				-2.6339762371208053e-08,
				0.9386529922485352,
				-1.4590000319003593e-09
			]
		},
		{
			"children":[
				37
			],
			"name":"upperarm.R",
			"rotation":[
				-1.4179589413743088e-07,
				-1.985652886560274e-07,
				0.5168158411979675,
				0.856096625328064
			],
			"translation":[
				6.779865202588553e-08,
				0.2603527009487152,
				-1.8358008446739404e-09
			]
		},
		{
			"children":[
				38
			],
			"name":"KTF.R",
			"rotation":[
				0.07238644361495972,
				-0.05783471837639809,
				0.6252598762512207,
				0.7748970985412598
			],
			"translation":[
				-0.26223859190940857,
				0.7271714210510254,
				0.05294385924935341
			]
		},
		{
			"children":[
				1,
				20,
				39
			],
			"name":"chest",
			"rotation":[
				-0.048871468752622604,
				-0.0013100913492962718,
				0.008811364881694317,
				0.9987654089927673
			],
			"scale":[
				0.9999999403953552,
				0.9999998211860657,
				0.9999999403953552
			],
			"translation":[
				1.4731540431967005e-09,
				0.3039988577365875,
				1.2803084814549948e-08
			]
		},
		{
			"children":[
				40
			],
			"name":"hip",
			"rotation":[
				-0.10024046152830124,
				-0.00020798516925424337,
				-0.0028504026122391224,
				0.9949591755867004
			],
			"translation":[
				1.2005330063402653e-10,
				0.4724717438220978,
				1.2616688138678e-08
			]
		},
		{
			"name":"toose.L",
			"rotation":[
				0.15885916352272034,
				-9.786875310169307e-09,
				0.004980090539902449,
				0.9872887134552002
			],
			"translation":[
				1.0477378964424133e-08,
				0.3251473903656006,
				2.2351741790771484e-08
			]
		},
		{
			"children":[
				42
			],
			"name":"foot.L",
			"rotation":[
				0.5767900943756104,
				-0.00029002001974731684,
				-0.01709475927054882,
				0.8167135119438171
			],
			"scale":[
				1.0000001192092896,
				1,
				1.0000001192092896
			],
			"translation":[
				3.006812221428845e-08,
				1.2175041437149048,
				2.8638169169425964e-08
			]
		},
		{
			"children":[
				43
			],
			"name":"lowerleg.L",
			"rotation":[
				-0.10364367067813873,
				-0.0001094812250812538,
				-0.003005185630172491,
				0.9946099519729614
			],
			"translation":[
				-2.1131199900992215e-08,
				0.9150111675262451,
				-9.66247171163559e-09
			]
		},
		{
			"children":[
				44
			],
			"name":"upperleg.L",
			"rotation":[
				-0.0008432599133811891,
				-0.08519835025072098,
				-0.9958282709121704,
				0.03265852481126785
			],
			"scale":[
				1.0000004768371582,
				1.0000001192092896,
				1.0000027418136597
			],
			"translation":[
				0.22804787755012512,
				0.020106183364987373,
				0.038262832909822464
			]
		},
		{
			"name":"toose.R",
			"rotation":[
				0.15885856747627258,
				-1.5269883135715645e-08,
				-0.004980073776096106,
				0.9872888326644897
			],
			"scale":[
				1,
				1.0000001192092896,
				1.0000001192092896
			],
			"translation":[
				-2.2817403078079224e-08,
				0.32514870166778564,
				1.1175870895385742e-08
			]
		},
		{
			"children":[
				46
			],
			"name":"foot.R",
			"rotation":[
				0.5767920613288879,
				0.0002900609979405999,
				0.017094770446419716,
				0.8167121410369873
			],
			"scale":[
				1,
				0.9999999403953552,
				0.9999999403953552
			],
			"translation":[
				1.1150859791086987e-08,
				1.2175049781799316,
				-2.0721927285194397e-08
			]
		},
		{
			"children":[
				47
			],
			"name":"lowerleg.R",
			"rotation":[
				-0.1036442369222641,
				0.00010941050277324393,
				0.003005176316946745,
				0.9946098923683167
			],
			"scale":[
				1.000000238418579,
				1,
				1.0000001192092896
			],
			"translation":[
				-2.4258042685687542e-08,
				0.9150113463401794,
				4.6566128730773926e-09
			]
		},
		{
			"children":[
				48
			],
			"name":"upperleg.R",
			"rotation":[
				-0.00046717695659026504,
				0.08521198481321335,
				0.9958561062812805,
				0.03176948055624962
			],
			"scale":[
				0.9999995231628418,
				0.9999998211860657,
				0.9999966025352478
			],
			"translation":[
				-0.2280474305152893,
				0.01971641555428505,
				0.03846794366836548
			]
		},
		{
			"children":[
				41,
				45,
				49
			],
			"name":"wiest",
			"rotation":[
				0.05649204179644585,
				-0.00020036612113472074,
				-0.00043930765241384506,
				0.9984029531478882
			],
			"scale":[
				1,
				1.0000001192092896,
				1
			],
			"translation":[
				0,
				-0.031493425369262695,
				-0.11870621144771576
			]
		},
		{
			"name":"hellikk.L",
			"rotation":[
				-0.7255880832672119,
				0,
				0,
				0.6881293654441833
			],
			"scale":[
				1,
				0.9999999403953552,
				1
			],
			"translation":[
				0.3571854829788208,
				-2.129411458969116,
				-0.20751827955245972
			]
		},
		{
			"name":"hellikk.R",
			"rotation":[
				-0.7255880832672119,
				0,
				0,
				0.6881293654441833
			],
			"scale":[
				1,
				0.9999999403953552,
				1
			],
			"translation":[
				-0.3571854829788208,
				-2.129411458969116,
				-0.20751827955245972
			]
		},
		{
			"mesh":0,
			"name":"Cube",
			"skin":0
		},
		{
			"children":[
				53,
				50,
				51,
				52
			],
			"name":"Armature",
			"translation":[
				-0.0006016269326210022,
				2.350790500640869,
				0.08912346512079239
			]
		}
	],
	"meshes":[
		{
			"name":"Cube.001",
			"primitives":[
				{
					"attributes":{
						"POSITION":0,
						"NORMAL":1,
						"TEXCOORD_0":2,
						"JOINTS_0":3,
						"WEIGHTS_0":4
					},
					"indices":5
				}
			]
		}
	],
	"skins":[
		{
			"inverseBindMatrices":6,
			"joints":[
				50,
				41,
				40,
				1,
				0,
				20,
				19,
				18,
				17,
				4,
				3,
				2,
				7,
				6,
				5,
				10,
				9,
				8,
				13,
				12,
				11,
				16,
				15,
				14,
				39,
				38,
				37,
				36,
				23,
				22,
				21,
				26,
				25,
				24,
				29,
				28,
				27,
				32,
				31,
				30,
				35,
				34,
				33,
				45,
				44,
				43,
				42,
				49,
				48,
				47,
				46,
				51,
				52
			],
			"name":"Armature"
		}
	],
	"accessors":[
		{
			"bufferView":0,
			"componentType":5126,
			"count":1825,
			"max":[
				1.8135672807693481,
				4.824968338012695,
				0.3482518196105957
			],
			"min":[
				-0.015311547555029392,
				-0.0048141032457351685,
				-0.3440939486026764
			],
			"type":"VEC3"
		},
		{
			"bufferView":1,
			"componentType":5126,
			"count":1825,
			"type":"VEC3"
		},
		{
			"bufferView":2,
			"componentType":5126,
			"count":1825,
			"type":"VEC2"
		},
		{
			"bufferView":3,
			"componentType":5121,
			"count":1825,
			"type":"VEC4"
		},
		{
			"bufferView":4,
			"componentType":5126,
			"count":1825,
			"type":"VEC4"
		},
		{
			"bufferView":5,
			"componentType":5123,
			"count":7164,
			"type":"SCALAR"
		},
		{
			"bufferView":6,
			"componentType":5126,
			"count":53,
			"type":"MAT4"
		}
	],
	"bufferViews":[
		{
			"buffer":0,
			"byteLength":21900,
			"byteOffset":0,
			"target":34962
		},
		{
			"buffer":0,
			"byteLength":21900,
			"byteOffset":21900,
			"target":34962
		},
		{
			"buffer":0,
			"byteLength":14600,
			"byteOffset":43800,
			"target":34962
		},
		{
			"buffer":0,
			"byteLength":7300,
			"byteOffset":58400,
			"target":34962
		},
		{
			"buffer":0,
			"byteLength":29200,
			"byteOffset":65700,
			"target":34962
		},
		{
			"buffer":0,
			"byteLength":14328,
			"byteOffset":94900,
			"target":34963
		},
		{
			"buffer":0,
			"byteLength":3392,
			"byteOffset":109228
		}
	],
	"buffers":[
		{
			"byteLength":112620,
			"uri":"model.bin"
		}
	]
}
