{
	"asset":{
		"generator":"Khronos glTF Blender I/O v4.3.47",
		"version":"2.0"
	},
	"scene":0,
	"scenes":[
		{
			"name":"Scene",
			"nodes":[
				54
			]
		}
	],
	"nodes":[
		{
			"name":"head",
			"rotation":[
				-0.03185064718127251,
				1.2932666049181307e-10,
				7.190249728949993e-09,
				0.9994926452636719
			],
			"scale":[
				1,
				0.9999999403953552,
				0.9999999403953552
			],
			"translation":[
				-5.899067900827504e-10,
				0.24526679515838623,
				-2.81778582689185e-08
			]
		},
		{
			"children":[
				0
			],
			"name":"neck",
			"rotation":[
				0.23579344153404236,
				0.00014984558220021427,
				-0.005620680749416351,
				0.9717869758605957
			],
			"scale":[
				0.9999999403953552,
				1,
				0.9999999403953552
			],
			"translation":[
				0.002372205024585128,
				0.8775953054428101,
				0.03904053568840027
			]
		},
		{
			"name":"lowerfinger.L",
			"rotation":[
				0.07802658528089523,
				-0.010184084065258503,
				-0.04076499119400978,
				0.9960654377937317
			],
			"scale":[
				0.9999998807907104,
				0.9999998211860657,
				0.9999998807907104
			],
			"translation":[
				-3.4924596548080444e-08,
				0.04208182543516159,
				5.960464477539063e-08
			]
		},
		{
			"children":[
				2
			],
			"name":"midfinger.L",
			"rotation":[
				0.003058983013033867,
				0.02470378205180168,
				-0.10774891078472137,
				0.9938664436340332
			],
			"scale":[
				1,
				1,
				1.0000001192092896
			],
			"translation":[
				3.166496753692627e-07,
				0.08919481933116913,
				-5.960464477539063e-08
			]
		},
		{
			"children":[
				3
			],
			"name":"upfinger.L",
			"rotation":[
				-0.13251233100891113,
				0.0037868241779506207,
				-0.1121530681848526,
				0.9848085641860962
			],
			"translation":[
				-0.011983969248831272,
				0.20865222811698914,
				-0.07740449905395508
			]
		},
		{
			"name":"lowerfinger2.L",
			"rotation":[
				0.020496318116784096,
				-0.07888597249984741,
				-0.03073185496032238,
				0.9961990118026733
			],
			"scale":[
				0.9999999403953552,
				0.9999998807907104,
				0.9999999403953552
			],
			"translation":[
				-9.080395102500916e-08,
				0.057520072907209396,
				0
			]
		},
		{
			"children":[
				5
			],
			"name":"midfinger2.L",
			"rotation":[
				-0.012899360619485378,
				0.005790661089122295,
				-0.006611201912164688,
				0.9998781681060791
			],
			"translation":[
				2.076849341392517e-07,
				0.08088238537311554,
				-2.3283064365386963e-08
			]
		},
		{
			"children":[
				6
			],
			"name":"upfinger2.L",
			"rotation":[
				-0.0047800904139876366,
				-0.01736089587211609,
				-0.15135829150676727,
				0.9883149862289429
			],
			"scale":[
				1,
				1,
				0.9999999403953552
			],
			"translation":[
				-0.016470910981297493,
				0.19975818693637848,
				-0.04867035895586014
			]
		},
		{
			"name":"lowerfinger3.L",
			"rotation":[
				0.027595050632953644,
				-0.07900819927453995,
				-0.07771202176809311,
				0.9934571385383606
			],
			"scale":[
				1,
				1.0000001192092896,
				1
			],
			"translation":[
				-9.778887033462524e-09,
				0.05726797878742218,
				7.450580596923828e-09
			]
		},
		{
			"children":[
				8
			],
			"name":"midfinger3.L",
			"rotation":[
				-0.021968845278024673,
				0.005379270296543837,
				-0.005221855361014605,
				0.9997305274009705
			],
			"scale":[
				1,
				1,
				1.0000001192092896
			],
			"translation":[
				3.3527612686157227e-07,
				0.08110147714614868,
				-7.450580596923828e-09
			]
		},
		{
			"children":[
				9
			],
			"name":"upfinger3.L",
			"rotation":[
				0.02335369773209095,
				-0.021670648828148842,
				-0.15478534996509552,
				0.9874343276023865
			],
			"scale":[
				0.9999999403953552,
				1,
				0.9999999403953552
			],
			"translation":[
				-0.015499923378229141,
				0.2016102373600006,
				0.00395582802593708
			]
		},
		{
			"name":"lowerfinger4.L",
			"rotation":[
				-0.0004096681659575552,
				-0.0888698548078537,
				-0.07190338522195816,
				0.9934445023536682
			],
			"scale":[
				1,
				0.9999998211860657,
				0.9999998807907104
			],
			"translation":[
				2.0372681319713593e-07,
				0.054999202489852905,
				-1.4901161193847656e-08
			]
		},
		{
			"children":[
				11
			],
			"name":"midfinger4.L",
			"rotation":[
				-0.006421661004424095,
				0.004101790487766266,
				-0.006707088090479374,
				0.9999485015869141
			],
			"scale":[
				0.9999998211860657,
				0.9999999403953552,
				0.9999999403953552
			],
			"translation":[
				3.4924596548080444e-08,
				0.07986269891262054,
				-1.7695128917694092e-08
			]
		},
		{
			"children":[
				12
			],
			"name":"upfinger4.L",
			"rotation":[
				0.0912860780954361,
				-0.03212898224592209,
				-0.16123932600021362,
				0.9821590781211853
			],
			"scale":[
				0.9999999403953552,
				0.9999999403953552,
				0.9999998807907104
			],
			"translation":[
				-0.012140288949012756,
				0.19467030465602875,
				0.05887221917510033
			]
		},
		{
			"name":"lowertoose.L",
			"rotation":[
				-0.2207394391298294,
				0.05650836601853371,
				-0.0759233683347702,
				0.9707298874855042
			],
			"scale":[
				1,
				1,
				0.9999998211860657
			],
			"translation":[
				-1.7136335372924805e-07,
				0.09655021131038666,
				5.960464477539063e-08
			]
		},
		{
			"children":[
				14
			],
			"name":"toosemid.L",
			"rotation":[
				-0.1091793030500412,
				0.11305905878543854,
				0.20436768233776093,
				0.9661942720413208
			],
			"scale":[
				0.9999999403953552,
				1.0000001192092896,
				1.0000001192092896
			],
			"translation":[
				4.6566128730773926e-08,
				0.10475605726242065,
				1.1175870895385742e-07
			]
		},
		{
			"children":[
				15
			],
			"name":"tooseup.L",
			"rotation":[
				0.2623865306377411,
				-0.204018235206604,
				-0.3476930558681488,
				0.8767208456993103
			],
			"scale":[
				0.9999998807907104,
				0.9999998807907104,
				0.9999999403953552
			],
			"translation":[
				0.01618344336748123,
				0.09848419576883316,
				0.0634240061044693
			]
		},
		{
			"children":[
				4,
				7,
				10,
				13,
				16
			],
			"name":"hand.L",
			"rotation":[
				0.010900703258812428,
				0.0027983668260276318,
				0.18405719101428986,
				0.9828510880470276
			],
			"scale":[
				1.0000001192092896,
				0.9999998807907104,
				1
			],
			"translation":[
				-1.1847853897961613e-07,
				0.47986963391304016,
				1.898565926694573e-08
			]
		},
		{
			"children":[
				17
			],
			"name":"lowerarm.L",
			"rotation":[
				3.089980182835461e-08,
				1.293635278898364e-07,
				0.05775584653019905,
				0.9983307719230652
			],
			"translation":[
				-7.1991209438238e-08,
				0.9386534094810486,
				-2.18182663047628e-08
			]
		},
		{
			"children":[
				18
			],
			"name":"upperarm.L",
			"rotation":[
				-1.417765531641635e-07,
				1.7979890287733724e-07,
				-0.5168158411979675,
				0.856096625328064
			],
			"scale":[
				1,
				0.9999999403953552,
				1
			],
			"translation":[
				3.4785023217409616e-07,
				0.26035255193710327,
				-1.6084271692307084e-08
			]
		},
		{
			"children":[
				19
			],
			"name":"KTF.L",
			"rotation":[
				0.07117002457380295,
				0.059325240552425385,
				-0.6338435411453247,
				0.7678917646408081
			],
			"scale":[
				0.9999999403953552,
				1,
				0.9999998807907104
			],
			"translation":[
				0.2734225392341614,
				0.7213576436042786,
				0.05136797949671745
			]
		},
		{
			"name":"lowerfinger.R",
			"rotation":[
				0.07802657037973404,
				0.010184069164097309,
				0.04076501354575157,
				0.9960654377937317
			],
			"scale":[
				0.9999999403953552,
				1.0000001192092896,
				1
			],
			"translation":[
				1.3457611203193665e-07,
				0.04208153486251831,
				2.9802322387695312e-08
			]
		},
		{
			"children":[
				21
			],
			"name":"midfinger.R",
			"rotation":[
				0.0030589757952839136,
				-0.02470378577709198,
				0.10774890333414078,
				0.9938664436340332
			],
			"translation":[
				-3.5669654607772827e-07,
				0.08919451385736465,
				2.9802322387695312e-08
			]
		},
		{
			"children":[
				22
			],
			"name":"upfinger.R",
			"rotation":[
				-0.13251234591007233,
				-0.0037868176586925983,
				0.11215309053659439,
				0.9848085641860962
			],
			"translation":[
				0.011983650736510754,
				0.20865224301815033,
				-0.0774044468998909
			]
		},
		{
			"name":"lowerfinger2.R",
			"rotation":[
				0.020496323704719543,
				0.07888595014810562,
				0.030731789767742157,
				0.9961990118026733
			],
			"scale":[
				1,
				0.9999998807907104,
				1
			],
			"translation":[
				-4.3585896492004395e-07,
				0.05752014368772507,
				-2.9802322387695312e-08
			]
		},
		{
			"children":[
				24
			],
			"name":"midfinger2.R",
			"rotation":[
				-0.012899384833872318,
				-0.005790663417428732,
				0.006611200515180826,
				0.9998781681060791
			],
			"scale":[
				0.9999999403953552,
				1,
				1
			],
			"translation":[
				1.043081283569336e-07,
				0.0808822512626648,
				2.7008354663848877e-08
			]
		},
		{
			"children":[
				25
			],
			"name":"upfinger2.R",
			"rotation":[
				-0.00478006899356842,
				0.017360901460051537,
				0.15135833621025085,
				0.9883149266242981
			],
			"scale":[
				1.0000001192092896,
				1,
				1
			],
			"translation":[
				0.016470350325107574,
				0.19975832104682922,
				-0.04867031052708626
			]
		},
		{
			"name":"lowerfinger3.R",
			"rotation":[
				0.027595045045018196,
				0.07900819927453995,
				0.07771208137273788,
				0.9934571385383606
			],
			"translation":[
				6.705522537231445e-08,
				0.05726795643568039,
				1.1175870895385742e-08
			]
		},
		{
			"children":[
				27
			],
			"name":"midfinger3.R",
			"rotation":[
				-0.021968845278024673,
				-0.005379274487495422,
				0.005221830680966377,
				0.9997305870056152
			],
			"scale":[
				1,
				0.9999999403953552,
				0.9999999403953552
			],
			"translation":[
				-3.306195139884949e-08,
				0.081101194024086,
				2.9802322387695312e-08
			]
		},
		{
			"children":[
				28
			],
			"name":"upfinger3.R",
			"rotation":[
				0.023353703320026398,
				0.02167065627872944,
				0.15478533506393433,
				0.9874342679977417
			],
			"scale":[
				1.0000001192092896,
				1,
				0.9999999403953552
			],
			"translation":[
				0.015499594621360302,
				0.2016102373600006,
				0.003955816850066185
			]
		},
		{
			"name":"lowerfinger4.R",
			"rotation":[
				-0.00040967168752104044,
				0.08886983245611191,
				0.07190342992544174,
				0.9934445023536682
			],
			"scale":[
				1,
				0.9999999403953552,
				1
			],
			"translation":[
				-1.6042031347751617e-07,
				0.05499937757849693,
				7.450580596923828e-09
			]
		},
		{
			"children":[
				30
			],
			"name":"midfinger4.R",
			"rotation":[
				-0.0064216493628919125,
				-0.004101794213056564,
				0.006707081105560064,
				0.9999485015869141
			],
			"scale":[
				0.9999997615814209,
				1,
				0.9999998807907104
			],
			"translation":[
				1.6298145055770874e-08,
				0.07986228168010712,
				2.8870999813079834e-08
			]
		},
		{
			"children":[
				31
			],
			"name":"upfinger4.R",
			"rotation":[
				0.0912860557436943,
				0.03212897852063179,
				0.16123932600021362,
				0.9821590781211853
			],
			"translation":[
				0.012139715254306793,
				0.1946704089641571,
				0.05887225270271301
			]
		},
		{
			"name":"lowertoose.R",
			"rotation":[
				-0.220739483833313,
				-0.056508369743824005,
				0.07592346519231796,
				0.9707298874855042
			],
			"scale":[
				0.9999998807907104,
				0.9999998807907104,
				0.9999998807907104
			],
			"translation":[
				3.3527612686157227e-08,
				0.09655056893825531,
				-8.940696716308594e-08
			]
		},
		{
			"children":[
				33
			],
			"name":"toosemid.R",
			"rotation":[
				-0.10917928814888,
				-0.11305905133485794,
				-0.2043677568435669,
				0.9661942720413208
			],
			"scale":[
				0.9999999403953552,
				1.0000001192092896,
				0.9999999403953552
			],
			"translation":[
				-1.7881393432617188e-07,
				0.10475657880306244,
				0
			]
		},
		{
			"children":[
				34
			],
			"name":"tooseup.R",
			"rotation":[
				0.2623865008354187,
				0.20401820540428162,
				0.3476930856704712,
				0.8767208456993103
			],
			"scale":[
				1,
				1.0000001192092896,
				0.9999999403953552
			],
			"translation":[
				-0.01618354022502899,
				0.09848418086767197,
				0.06342403590679169
			]
		},
		{
			"children":[
				23,
				26,
				29,
				32,
				35
			],
			"name":"hand.R",
			"rotation":[
				0.010900703258812428,
				-0.00279836799018085,
				-0.18405714631080627,
				0.9828510880470276
			],
			"scale":[
				1.0000001192092896,
				1,
				1.0000001192092896
			],
			"translation":[
				-3.0301799824883346e-07,
				0.4798695743083954,
				-3.5842646184391924e-08
			]
		},
		{
			"children":[
				36
			],
			"name":"lowerarm.R",
			"rotation":[
				3.056932840195259e-08,
				-1.3004044774334034e-07,
				-0.057755887508392334,
				0.9983307719230652
			],
			"scale":[
				1,
				0.9999999403953552,
				1
			],
			"translation":[
				-1.6446421113869292e-07,
				0.9386529922485352,
				3.255684077885235e-08
			]
		},
		{
			"children":[
				37
			],
			"name":"upperarm.R",
			"rotation":[
				-1.417959083482856e-07,
				-1.9856530286688212e-07,
				0.5168158411979675,
				0.856096625328064
			],
			"translation":[
				4.981237111678638e-08,
				0.2603527009487152,
				2.1277344330883352e-09
			]
		},
		{
			"children":[
				38
			],
			"name":"KTF.R",
			"rotation":[
				0.07238644361495972,
				-0.05783471837639809,
				0.6252598762512207,
				0.7748970985412598
			],
			"translation":[
				-0.26223859190940857,
				0.7271715402603149,
				0.052943941205739975
			]
		},
		{
			"children":[
				1,
				20,
				39
			],
			"name":"chest",
			"rotation":[
				-0.0488714724779129,
				-0.0013100915821269155,
				0.008811365813016891,
				0.9987653493881226
			],
			"scale":[
				0.9999999403953552,
				0.9999998211860657,
				0.9999999403953552
			],
			"translation":[
				-1.3242242857813835e-09,
				0.3039988875389099,
				3.140192461614788e-08
			]
		},
		{
			"children":[
				40
			],
			"name":"hip",
			"rotation":[
				-0.10024046152830124,
				-0.00020798519835807383,
				-0.0028504026122391224,
				0.9949591755867004
			],
			"translation":[
				-9.822542779147625e-11,
				0.4724718928337097,
				3.9432535459127394e-08
			]
		},
		{
			"name":"toose.L",
			"rotation":[
				0.15885916352272034,
				-9.610004347848644e-09,
				0.004980090539902449,
				0.9872887134552002
			],
			"translation":[
				-3.3673131838440895e-08,
				0.3251473903656006,
				5.587935447692871e-09
			]
		},
		{
			"children":[
				42
			],
			"name":"foot.L",
			"rotation":[
				0.5767900943756104,
				-0.00029001946677453816,
				-0.01709476113319397,
				0.8167135119438171
			],
			"scale":[
				1,
				1,
				1.0000001192092896
			],
			"translation":[
				2.1186679077800363e-08,
				1.2175041437149048,
				-1.1641532182693481e-08
			]
		},
		{
			"children":[
				43
			],
			"name":"lowerleg.L",
			"rotation":[
				-0.10364367067813873,
				-0.00010948137060040608,
				-0.0030051860958337784,
				0.9946099519729614
			],
			"translation":[
				2.4814653443172574e-08,
				0.9150110483169556,
				-5.820766091346741e-10
			]
		},
		{
			"children":[
				44
			],
			"name":"upperleg.L",
			"rotation":[
				-0.00084325997158885,
				-0.08519834280014038,
				-0.9958282709121704,
				0.03265852853655815
			],
			"scale":[
				1.0000004768371582,
				1.0000001192092896,
				1.0000028610229492
			],
			"translation":[
				0.22804789245128632,
				0.02010633796453476,
				0.03826285898685455
			]
		},
		{
			"name":"toose.R",
			"rotation":[
				0.15885856747627258,
				-1.5093011285216562e-08,
				-0.004980074241757393,
				0.9872888326644897
			],
			"scale":[
				1,
				1,
				1.0000001192092896
			],
			"translation":[
				-1.0244548320770264e-08,
				0.32514870166778564,
				-3.725290298461914e-09
			]
		},
		{
			"children":[
				46
			],
			"name":"foot.R",
			"rotation":[
				0.5767920017242432,
				0.0002900615509133786,
				0.017094768583774567,
				0.8167121410369873
			],
			"scale":[
				1,
				1,
				0.9999999403953552
			],
			"translation":[
				1.994840204133652e-08,
				1.2175049781799316,
				1.6996636986732483e-08
			]
		},
		{
			"children":[
				47
			],
			"name":"lowerleg.R",
			"rotation":[
				-0.1036442369222641,
				0.00010941032087430358,
				0.0030051760841161013,
				0.9946098923683167
			],
			"scale":[
				1.0000001192092896,
				1,
				1.0000001192092896
			],
			"translation":[
				1.6982085071504116e-08,
				0.9150112271308899,
				-3.026798367500305e-09
			]
		},
		{
			"children":[
				48
			],
			"name":"upperleg.R",
			"rotation":[
				-0.00046717695659026504,
				0.08521198481321335,
				0.9958561062812805,
				0.03176947683095932
			],
			"scale":[
				0.9999995231628418,
				0.9999998211860657,
				0.9999966025352478
			],
			"translation":[
				-0.2280474156141281,
				0.019716570153832436,
				0.03846796974539757
			]
		},
		{
			"children":[
				41,
				45,
				49
			],
			"name":"wiest",
			"rotation":[
				0.7459233403205872,
				0.00016895716544240713,
				-0.00045231773401610553,
				0.6660315990447998
			],
			"scale":[
				1,
				1.0000001192092896,
				1
			],
			"translation":[
				-7.482015007553855e-12,
				0.11870621889829636,
				-0.031493425369262695
			]
		},
		{
			"name":"hellikk.L",
			"rotation":[
				-0.02648737095296383,
				0,
				0,
				0.999649167060852
			],
			"scale":[
				1,
				0.9999999403953552,
				1
			],
			"translation":[
				0.3571854829788208,
				0.20751826465129852,
				-2.129411458969116
			]
		},
		{
			"name":"hellikk.R",
			"rotation":[
				-0.02648737095296383,
				0,
				0,
				0.999649167060852
			],
			"scale":[
				1,
				0.9999999403953552,
				1
			],
			"translation":[
				-0.3571854829788208,
				0.20751827955245972,
				-2.129411458969116
			]
		},
		{
			"mesh":0,
			"name":"Cube",
			"skin":0
		},
		{
			"children":[
				53,
				50,
				51,
				52
			],
			"name":"Armature",
			"rotation":[
				0,
				0,
				1,
				7.549790126404332e-08
			],
			"translation":[
				-0.0006016269326210022,
				-0.08912346512079239,
				2.350790500640869
			]
		}
	],
	"meshes":[
		{
			"name":"Cube.001",
			"primitives":[
				{
					"attributes":{
						"POSITION":0,
						"NORMAL":1,
						"TEXCOORD_0":2,
						"JOINTS_0":3,
						"WEIGHTS_0":4
					},
					"indices":5
				}
			]
		}
	],
	"skins":[
		{
			"inverseBindMatrices":6,
			"joints":[
				50,
				41,
				40,
				1,
				0,
				20,
				19,
				18,
				17,
				4,
				3,
				2,
				7,
				6,
				5,
				10,
				9,
				8,
				13,
				12,
				11,
				16,
				15,
				14,
				39,
				38,
				37,
				36,
				23,
				22,
				21,
				26,
				25,
				24,
				29,
				28,
				27,
				32,
				31,
				30,
				35,
				34,
				33,
				45,
				44,
				43,
				42,
				49,
				48,
				47,
				46,
				51,
				52
			],
			"name":"Armature"
		}
	],
	"accessors":[
		{
			"bufferView":0,
			"componentType":5126,
			"count":1825,
			"max":[
				0.014108269475400448,
				0.1700049489736557,
				4.824968338012695
			],
			"min":[
				-1.8147705793380737,
				-0.5223408341407776,
				-0.0048141032457351685
			],
			"type":"VEC3"
		},
		{
			"bufferView":1,
			"componentType":5126,
			"count":1825,
			"type":"VEC3"
		},
		{
			"bufferView":2,
			"componentType":5126,
			"count":1825,
			"type":"VEC2"
		},
		{
			"bufferView":3,
			"componentType":5121,
			"count":1825,
			"type":"VEC4"
		},
		{
			"bufferView":4,
			"componentType":5126,
			"count":1825,
			"type":"VEC4"
		},
		{
			"bufferView":5,
			"componentType":5123,
			"count":7164,
			"type":"SCALAR"
		},
		{
			"bufferView":6,
			"componentType":5126,
			"count":53,
			"type":"MAT4"
		}
	],
	"bufferViews":[
		{
			"buffer":0,
			"byteLength":21900,
			"byteOffset":0,
			"target":34962
		},
		{
			"buffer":0,
			"byteLength":21900,
			"byteOffset":21900,
			"target":34962
		},
		{
			"buffer":0,
			"byteLength":14600,
			"byteOffset":43800,
			"target":34962
		},
		{
			"buffer":0,
			"byteLength":7300,
			"byteOffset":58400,
			"target":34962
		},
		{
			"buffer":0,
			"byteLength":29200,
			"byteOffset":65700,
			"target":34962
		},
		{
			"buffer":0,
			"byteLength":14328,
			"byteOffset":94900,
			"target":34963
		},
		{
			"buffer":0,
			"byteLength":3392,
			"byteOffset":109228
		}
	],
	"buffers":[
		{
			"byteLength":112620,
			"uri":"model.bin"
		}
	]
}
